# xmcd
#
# Track frame offsets:
#	150
#	17571
#	31730
#	48027
#	65441
#	83958
#	100497
#	145495
#	163486
#	179427
#	198794
#	216319
#	237704
#
# Disc length: 3282 seconds
#
# Revision: 0
# Processed by: cddbd v1.5.2PL0 Copyright (c) Steve Scherf et al.
# Submitted via: dBpowerAMP V4.0
#
DISCID=ba0cd00d
DTITLE=Briarose - Wah! Hoo!
DYEAR=2001
DGENRE=Country
TTITLE0=Wah-Hoo
TTITLE1=Tear My Stillhouse Down
TTITLE2=Some Kind of Love
TTITLE3=Desert Pete
TTITLE4=Western Girl
TTITLE5=Waltz Across Texas
TTITLE6=Superstition Mountain/Land of the Navajo
TTITLE7=Another Lonesome Cowboy Song
TTITLE8=Orphan Train
TTITLE9=Coyotes
TTITLE10=River of Change
TTITLE11=Night Rider's Lament
TTITLE12=Happy Trails
EXTD=
EXTT0=
EXTT1=
EXTT2=
EXTT3=
EXTT4=
EXTT5=
EXTT6=
EXTT7=
EXTT8=
EXTT9=
EXTT10=
EXTT11=
EXTT12=
PLAYORDER=
